<svg xmlns="http://www.w3.org/2000/svg" xmlns:xlink="http://www.w3.org/1999/xlink" width="388" zoomAndPan="magnify" viewBox="0 0 291 72" height="96" preserveAspectRatio="xMidYMid meet" version="1.0"><defs><g/></defs><path stroke-linecap="round" transform="matrix(0.282304, -0.696281, 0.695045, 0.281802, 2.996108, 61.552631)" fill="none" stroke-linejoin="miter" d="M 2.000462 1.997531 L 85.857143 2.001469 " stroke="#5e17eb" stroke-width="4" stroke-opacity="1" stroke-miterlimit="4"/><path stroke-linecap="round" transform="matrix(0.28053, -0.691747, 0.695022, 0.281858, 52.838395, 69.627772)" fill="none" stroke-linejoin="miter" d="M 1.999037 1.999759 L 97.470913 1.997612 " stroke="#5e17eb" stroke-width="4" stroke-opacity="1" stroke-miterlimit="4"/><path stroke-linecap="round" transform="matrix(-0.285763, 0.704525, -0.695005, -0.281901, 32.623849, 46.136784)" fill="none" stroke-linejoin="miter" d="M 1.997229 1.998623 L 34.504526 1.998182 " stroke="#5e17eb" stroke-width="4" stroke-opacity="1" stroke-miterlimit="4"/><path stroke-linecap="round" transform="matrix(-0.285763, 0.704525, -0.695005, -0.281901, 45.6947, 46.136784)" fill="none" stroke-linejoin="miter" d="M 1.997495 1.999289 L 34.504792 1.998847 " stroke="#5e17eb" stroke-width="4" stroke-opacity="1" stroke-miterlimit="4"/><path stroke-linecap="round" transform="matrix(-0.286173, 0.687292, -0.692379, -0.288291, 63.603835, 2.917589)" fill="none" stroke-linejoin="miter" d="M 1.998193 1.998284 L 36.293833 2.001063 " stroke="#5e17eb" stroke-width="4" stroke-opacity="1" stroke-miterlimit="4"/><path stroke-linecap="round" transform="matrix(-0.76024, 0.000000000000001444, -0.000000000000001424, -0.75, 82.152294, 4.010524)" fill="none" stroke-linejoin="miter" d="M 1.998686 1.998407 L 26.615698 1.998407 " stroke="#5e17eb" stroke-width="4" stroke-opacity="1" stroke-miterlimit="4"/><path stroke-linecap="round" transform="matrix(-0.76024, 0.000000000000001444, -0.000000000000001424, -0.75, 49.796936, 4.010524)" fill="none" stroke-linejoin="miter" d="M 1.998831 1.998407 L 26.615843 1.998407 " stroke="#5e17eb" stroke-width="4" stroke-opacity="1" stroke-miterlimit="4"/><path stroke-linecap="round" transform="matrix(-0.755905, 0.000000000000004121, -0.000000000000004089, -0.75, 44.823833, 48.322714)" fill="none" stroke-linejoin="miter" d="M 1.999368 1.997993 L 17.848531 1.997993 " stroke="#5e17eb" stroke-width="4" stroke-opacity="1" stroke-miterlimit="4"/><path stroke-linecap="round" transform="matrix(-0.741176, -0.000000000000000091, 0.000000000000000092, -0.75, 52.791336, 29.426615)" fill="none" stroke-linejoin="miter" d="M 2.000526 2.001112 L 19.26088 2.001112 " stroke="#5e17eb" stroke-width="4" stroke-opacity="1" stroke-miterlimit="4"/><path stroke-linecap="round" transform="matrix(-0.76024, 0.000000000000001444, -0.000000000000001424, -0.75, 21.782097, 71.506245)" fill="none" stroke-linejoin="miter" d="M 1.999866 1.99791 L 26.616878 1.99791 " stroke="#5e17eb" stroke-width="4" stroke-opacity="1" stroke-miterlimit="4"/><path stroke-linecap="round" transform="matrix(-0.76024, 0.000000000000001444, -0.000000000000001424, -0.75, 55.553899, 71.506245)" fill="none" stroke-linejoin="miter" d="M 1.997715 1.99791 L 26.614727 1.99791 " stroke="#5e17eb" stroke-width="4" stroke-opacity="1" stroke-miterlimit="4"/><path stroke-linecap="round" transform="matrix(-0.286173, 0.687292, -0.692379, -0.288291, 50.656887, 2.167589)" fill="none" stroke-linejoin="miter" d="M 1.999365 2.001078 L 36.292989 1.99905 " stroke="#5e17eb" stroke-width="4" stroke-opacity="1" stroke-miterlimit="4"/><g fill="#5e17eb" fill-opacity="1"><g transform="translate(84.314255, 52.35488)"><g><path d="M 13.328125 0 L 13.328125 -8.03125 L 5.890625 -8.03125 L 5.890625 0 L 2.046875 0 L 2.046875 -18.890625 L 5.890625 -18.890625 L 5.890625 -11.546875 L 13.328125 -11.546875 L 13.328125 -18.890625 L 17.203125 -18.890625 L 17.203125 0 Z M 13.328125 0 "/></g></g></g><g fill="#5e17eb" fill-opacity="1"><g transform="translate(103.547342, 52.35488)"><g><path d="M 0.484375 1.921875 C 1.242188 2.191406 1.925781 2.328125 2.53125 2.328125 C 3.0625 2.328125 3.523438 2.164062 3.921875 1.84375 C 4.328125 1.519531 4.742188 0.859375 5.171875 -0.140625 L 5.546875 -0.984375 L 0.375 -14.3125 L 4.03125 -14.3125 L 7.40625 -5.171875 L 10.875 -14.3125 L 14.453125 -14.3125 L 8.296875 0.984375 C 7.796875 2.210938 7.304688 3.117188 6.828125 3.703125 C 6.359375 4.296875 5.804688 4.722656 5.171875 4.984375 C 4.546875 5.253906 3.753906 5.390625 2.796875 5.390625 C 1.753906 5.390625 0.734375 5.253906 -0.265625 4.984375 Z M 0.484375 1.921875 "/></g></g></g><g fill="#5e17eb" fill-opacity="1"><g transform="translate(118.357775, 52.35488)"><g><path d="M 15.34375 -7.265625 C 15.34375 -5.722656 15.109375 -4.363281 14.640625 -3.1875 C 14.179688 -2.019531 13.519531 -1.125 12.65625 -0.5 C 11.789062 0.113281 10.753906 0.421875 9.546875 0.421875 C 7.960938 0.421875 6.613281 -0.0703125 5.5 -1.0625 L 5.5 5.390625 L 1.984375 5.390625 L 1.984375 -14.3125 L 5.234375 -14.3125 L 5.234375 -12.90625 C 5.878906 -13.476562 6.5625 -13.925781 7.28125 -14.25 C 8.007812 -14.570312 8.84375 -14.734375 9.78125 -14.734375 C 11.59375 -14.734375 12.972656 -14.09375 13.921875 -12.8125 C 14.867188 -11.539062 15.34375 -9.691406 15.34375 -7.265625 Z M 11.703125 -7.203125 C 11.703125 -8.597656 11.460938 -9.679688 10.984375 -10.453125 C 10.503906 -11.234375 9.785156 -11.625 8.828125 -11.625 C 8.253906 -11.625 7.664062 -11.488281 7.0625 -11.21875 C 6.457031 -10.957031 5.9375 -10.628906 5.5 -10.234375 L 5.5 -3.96875 C 5.875 -3.632812 6.335938 -3.335938 6.890625 -3.078125 C 7.441406 -2.816406 8.003906 -2.6875 8.578125 -2.6875 C 9.546875 -2.6875 10.304688 -3.097656 10.859375 -3.921875 C 11.421875 -4.742188 11.703125 -5.835938 11.703125 -7.203125 Z M 11.703125 -7.203125 "/></g></g></g><g fill="#5e17eb" fill-opacity="1"><g transform="translate(134.97003, 52.35488)"><g><path d="M 4.890625 -6.234375 C 4.953125 -4.960938 5.257812 -4.046875 5.8125 -3.484375 C 6.363281 -2.929688 7.238281 -2.65625 8.4375 -2.65625 C 9.125 -2.65625 9.726562 -2.742188 10.25 -2.921875 C 10.78125 -3.097656 11.238281 -3.429688 11.625 -3.921875 L 14.25 -2.046875 C 13.675781 -1.222656 12.929688 -0.601562 12.015625 -0.1875 C 11.097656 0.21875 9.847656 0.421875 8.265625 0.421875 C 5.910156 0.421875 4.148438 -0.195312 2.984375 -1.4375 C 1.828125 -2.675781 1.25 -4.546875 1.25 -7.046875 C 1.25 -12.171875 3.546875 -14.734375 8.140625 -14.734375 C 10.171875 -14.734375 11.722656 -14.15625 12.796875 -13 C 13.867188 -11.851562 14.40625 -10.175781 14.40625 -7.96875 L 14.40625 -6.234375 Z M 10.90625 -8.671875 C 10.90625 -10.835938 9.953125 -11.921875 8.046875 -11.921875 C 7.421875 -11.921875 6.90625 -11.8125 6.5 -11.59375 C 6.101562 -11.382812 5.785156 -11.066406 5.546875 -10.640625 C 5.304688 -10.222656 5.117188 -9.566406 4.984375 -8.671875 Z M 10.90625 -8.671875 "/></g></g></g><g fill="#5e17eb" fill-opacity="1"><g transform="translate(150.572172, 52.35488)"><g/></g></g><g fill="#5e17eb" fill-opacity="1"><g transform="translate(157.288055, 52.35488)"><g><path d="M 15.625 -5.46875 C 15.625 -3.582031 15.003906 -2.132812 13.765625 -1.125 C 12.523438 -0.113281 10.691406 0.390625 8.265625 0.390625 C 6.597656 0.390625 5.144531 0.113281 3.90625 -0.4375 C 2.675781 -0.988281 1.675781 -1.882812 0.90625 -3.125 L 3.859375 -5.390625 C 4.296875 -4.773438 4.707031 -4.3125 5.09375 -4 C 5.488281 -3.6875 5.953125 -3.441406 6.484375 -3.265625 C 7.023438 -3.097656 7.648438 -3.015625 8.359375 -3.015625 C 9.398438 -3.015625 10.210938 -3.191406 10.796875 -3.546875 C 11.390625 -3.910156 11.6875 -4.460938 11.6875 -5.203125 C 11.6875 -5.617188 11.582031 -5.96875 11.375 -6.25 C 11.164062 -6.53125 10.859375 -6.769531 10.453125 -6.96875 C 10.046875 -7.175781 9.335938 -7.414062 8.328125 -7.6875 C 7.347656 -7.945312 6.421875 -8.210938 5.546875 -8.484375 C 4.679688 -8.753906 3.929688 -9.101562 3.296875 -9.53125 C 2.660156 -9.957031 2.160156 -10.492188 1.796875 -11.140625 C 1.429688 -11.785156 1.25 -12.597656 1.25 -13.578125 C 1.25 -15.367188 1.851562 -16.765625 3.0625 -17.765625 C 4.28125 -18.773438 6.015625 -19.28125 8.265625 -19.28125 C 11.535156 -19.28125 13.847656 -18.160156 15.203125 -15.921875 L 12.265625 -13.640625 C 11.753906 -14.441406 11.171875 -15.015625 10.515625 -15.359375 C 9.867188 -15.703125 9.101562 -15.875 8.21875 -15.875 C 7.320312 -15.875 6.59375 -15.710938 6.03125 -15.390625 C 5.476562 -15.066406 5.203125 -14.5625 5.203125 -13.875 C 5.203125 -13.257812 5.492188 -12.789062 6.078125 -12.46875 C 6.660156 -12.144531 7.675781 -11.820312 9.125 -11.5 C 9.914062 -11.28125 10.703125 -11.050781 11.484375 -10.8125 C 12.273438 -10.570312 12.976562 -10.238281 13.59375 -9.8125 C 14.207031 -9.382812 14.695312 -8.820312 15.0625 -8.125 C 15.4375 -7.4375 15.625 -6.550781 15.625 -5.46875 Z M 15.625 -5.46875 "/></g></g></g><g fill="#5e17eb" fill-opacity="1"><g transform="translate(174.064112, 52.35488)"><g><path d="M 14.984375 -7.125 C 14.984375 -4.738281 14.429688 -2.882812 13.328125 -1.5625 C 12.234375 -0.238281 10.503906 0.421875 8.140625 0.421875 C 3.546875 0.421875 1.25 -2.09375 1.25 -7.125 C 1.25 -9.539062 1.800781 -11.410156 2.90625 -12.734375 C 4.007812 -14.066406 5.753906 -14.734375 8.140625 -14.734375 C 10.503906 -14.734375 12.234375 -14.066406 13.328125 -12.734375 C 14.429688 -11.410156 14.984375 -9.539062 14.984375 -7.125 Z M 11.34375 -7.125 C 11.34375 -8.695312 11.097656 -9.84375 10.609375 -10.5625 C 10.117188 -11.289062 9.296875 -11.65625 8.140625 -11.65625 C 6.992188 -11.65625 6.164062 -11.285156 5.65625 -10.546875 C 5.144531 -9.804688 4.890625 -8.664062 4.890625 -7.125 C 4.890625 -5.59375 5.140625 -4.460938 5.640625 -3.734375 C 6.148438 -3.015625 6.984375 -2.65625 8.140625 -2.65625 C 9.273438 -2.65625 10.09375 -3.007812 10.59375 -3.71875 C 11.09375 -4.4375 11.34375 -5.570312 11.34375 -7.125 Z M 11.34375 -7.125 "/></g></g></g><g fill="#5e17eb" fill-opacity="1"><g transform="translate(190.307812, 52.35488)"><g><path d="M 9.53125 -17.328125 C 8.875 -17.546875 8.238281 -17.65625 7.625 -17.65625 C 6.9375 -17.65625 6.460938 -17.507812 6.203125 -17.21875 C 5.941406 -16.9375 5.8125 -16.429688 5.8125 -15.703125 L 5.8125 -14.3125 L 8.71875 -14.3125 L 8.71875 -11.515625 L 5.8125 -11.515625 L 5.8125 0 L 2.296875 0 L 2.296875 -11.515625 L 0.484375 -11.515625 L 0.484375 -14.3125 L 2.296875 -14.3125 L 2.296875 -15.703125 C 2.296875 -17.484375 2.734375 -18.769531 3.609375 -19.5625 C 4.484375 -20.351562 5.804688 -20.75 7.578125 -20.75 C 8.398438 -20.75 9.273438 -20.632812 10.203125 -20.40625 Z M 9.53125 -17.328125 "/></g></g></g><g fill="#5e17eb" fill-opacity="1"><g transform="translate(199.303273, 52.35488)"><g><path d="M 9.890625 0 C 8.941406 0.28125 7.945312 0.421875 6.90625 0.421875 C 5.25 0.421875 4.054688 0.0507812 3.328125 -0.6875 C 2.597656 -1.4375 2.234375 -2.648438 2.234375 -4.328125 L 2.234375 -11.515625 L 0.421875 -11.515625 L 0.421875 -14.3125 L 2.234375 -14.3125 L 2.234375 -18.296875 L 5.765625 -18.296875 L 5.765625 -14.3125 L 9.09375 -14.3125 L 9.09375 -11.515625 L 5.765625 -11.515625 L 5.765625 -4.78125 C 5.765625 -3.882812 5.898438 -3.273438 6.171875 -2.953125 C 6.453125 -2.640625 6.847656 -2.484375 7.359375 -2.484375 C 8.003906 -2.484375 8.644531 -2.613281 9.28125 -2.875 Z M 9.890625 0 "/></g></g></g><g fill="#5e17eb" fill-opacity="1"><g transform="translate(209.390748, 52.35488)"><g><path d="M 17.15625 0 L 13.953125 0 L 10.734375 -9.125 L 7.5 0 L 4.265625 0 L 0.375 -14.3125 L 4.03125 -14.3125 L 6.234375 -5.09375 L 9.4375 -14.3125 L 12.109375 -14.3125 L 15.34375 -5.171875 L 17.46875 -14.3125 L 20.984375 -14.3125 Z M 17.15625 0 "/></g></g></g><g fill="#5e17eb" fill-opacity="1"><g transform="translate(230.753261, 52.35488)"><g><path d="M 10.421875 0 L 10.421875 -1.484375 C 9.035156 -0.210938 7.546875 0.421875 5.953125 0.421875 C 4.367188 0.421875 3.171875 0.00390625 2.359375 -0.828125 C 1.546875 -1.660156 1.140625 -2.726562 1.140625 -4.03125 C 1.140625 -5.050781 1.347656 -5.890625 1.765625 -6.546875 C 2.179688 -7.210938 2.796875 -7.734375 3.609375 -8.109375 C 4.421875 -8.492188 5.59375 -8.757812 7.125 -8.90625 L 10.140625 -9.203125 L 10.140625 -9.84375 C 10.140625 -10.644531 9.894531 -11.191406 9.40625 -11.484375 C 8.925781 -11.773438 8.222656 -11.921875 7.296875 -11.921875 C 6.535156 -11.921875 5.878906 -11.796875 5.328125 -11.546875 C 4.773438 -11.296875 4.367188 -10.929688 4.109375 -10.453125 L 1.359375 -12.21875 C 1.847656 -13.03125 2.601562 -13.648438 3.625 -14.078125 C 4.65625 -14.515625 5.898438 -14.734375 7.359375 -14.734375 C 9.585938 -14.734375 11.191406 -14.34375 12.171875 -13.5625 C 13.160156 -12.78125 13.65625 -11.503906 13.65625 -9.734375 L 13.65625 0 Z M 10.140625 -6.640625 L 8.359375 -6.484375 C 7.085938 -6.367188 6.171875 -6.125 5.609375 -5.75 C 5.054688 -5.382812 4.78125 -4.828125 4.78125 -4.078125 C 4.78125 -3.421875 4.960938 -2.972656 5.328125 -2.734375 C 5.691406 -2.492188 6.171875 -2.375 6.765625 -2.375 C 7.191406 -2.375 7.710938 -2.507812 8.328125 -2.78125 C 8.941406 -3.050781 9.546875 -3.429688 10.140625 -3.921875 Z M 10.140625 -6.640625 "/></g></g></g><g fill="#5e17eb" fill-opacity="1"><g transform="translate(246.300803, 52.35488)"><g><path d="M 10.625 -10.875 C 10.257812 -11.0625 9.773438 -11.15625 9.171875 -11.15625 C 8.515625 -11.15625 7.890625 -10.992188 7.296875 -10.671875 C 6.710938 -10.359375 6.113281 -9.90625 5.5 -9.3125 L 5.5 0 L 1.984375 0 L 1.984375 -14.3125 L 5.5 -14.3125 L 5.5 -12.265625 C 6.101562 -12.921875 6.75 -13.460938 7.4375 -13.890625 C 8.125 -14.316406 8.898438 -14.53125 9.765625 -14.53125 C 10.484375 -14.53125 11 -14.4375 11.3125 -14.25 Z M 10.625 -10.875 "/></g></g></g><g fill="#5e17eb" fill-opacity="1"><g transform="translate(257.766945, 52.35488)"><g><path d="M 4.890625 -6.234375 C 4.953125 -4.960938 5.257812 -4.046875 5.8125 -3.484375 C 6.363281 -2.929688 7.238281 -2.65625 8.4375 -2.65625 C 9.125 -2.65625 9.726562 -2.742188 10.25 -2.921875 C 10.78125 -3.097656 11.238281 -3.429688 11.625 -3.921875 L 14.25 -2.046875 C 13.675781 -1.222656 12.929688 -0.601562 12.015625 -0.1875 C 11.097656 0.21875 9.847656 0.421875 8.265625 0.421875 C 5.910156 0.421875 4.148438 -0.195312 2.984375 -1.4375 C 1.828125 -2.675781 1.25 -4.546875 1.25 -7.046875 C 1.25 -12.171875 3.546875 -14.734375 8.140625 -14.734375 C 10.171875 -14.734375 11.722656 -14.15625 12.796875 -13 C 13.867188 -11.851562 14.40625 -10.175781 14.40625 -7.96875 L 14.40625 -6.234375 Z M 10.90625 -8.671875 C 10.90625 -10.835938 9.953125 -11.921875 8.046875 -11.921875 C 7.421875 -11.921875 6.90625 -11.8125 6.5 -11.59375 C 6.101562 -11.382812 5.785156 -11.066406 5.546875 -10.640625 C 5.304688 -10.222656 5.117188 -9.566406 4.984375 -8.671875 Z M 10.90625 -8.671875 "/></g></g></g></svg>